<?xml version="1.0" encoding="UTF-8" standalone="no"?>
<svg
   xmlns:dc="http://purl.org/dc/elements/1.1/"
   xmlns:cc="http://creativecommons.org/ns#"
   xmlns:rdf="http://www.w3.org/1999/02/22-rdf-syntax-ns#"
   xmlns:svg="http://www.w3.org/2000/svg"
   xmlns="http://www.w3.org/2000/svg"
   version="1.1"
   width="28.089884mm"
   height="11.957105mm"
   id="svg3750">
  <metadata
     id="metadata10">
    <rdf:RDF>
      <cc:Work
         rdf:about="">
        <dc:format>image/svg+xml</dc:format>
        <dc:type
           rdf:resource="http://purl.org/dc/dcmitype/StillImage" />
        <dc:title></dc:title>
      </cc:Work>
    </rdf:RDF>
  </metadata>
  <defs
     id="defs3752" />
  <g
     transform="matrix(0.2252571,0,0,0.2252571,-22.860579,-82.51965)"
     id="layer1">
    <path
       d="m 482.61161,366.3354 c -0.58996,0 -1.1624,0.0424 -1.71875,0.15625 -0.27818,0.0569 -0.54488,0.13548 -0.8125,0.21875 -0.26762,0.0833 -0.52561,0.1731 -0.78125,0.28125 -0.76692,0.32445 -1.49175,0.75861 -2.125,1.28125 -0.42217,0.34842 -0.80783,0.73408 -1.15625,1.15625 -0.34842,0.42216 -0.64304,0.89056 -0.90625,1.375 -0.1316,0.24222 -0.26685,0.49436 -0.375,0.75 -0.10815,0.25564 -0.19799,0.51362 -0.28125,0.78125 -0.24979,0.80287 -0.375,1.64631 -0.375,2.53125 0,1.77134 0.51576,3.41646 1.4375,4.78125 0.6145,0.90985 1.40303,1.69786 2.3125,2.3125 0.22737,0.15365 0.47653,0.30587 0.71875,0.4375 0.24222,0.13162 0.49436,0.23558 0.75,0.34375 0.25564,0.10816 0.51363,0.22922 0.78125,0.3125 0.80287,0.24981 1.64632,0.375 2.53125,0.375 4.72359,0 8.5625,-3.83892 8.5625,-8.5625 0,-4.71964 -3.83891,-8.53125 -8.5625,-8.53125 z m -20.40625,11.46875 c -4.71965,0 -8.53125,3.81161 -8.53125,8.53125 0,4.72358 3.8116,8.5625 8.53125,8.5625 4.72359,0 8.5625,-3.83892 8.5625,-8.5625 0,-4.71964 -3.83891,-8.53125 -8.5625,-8.53125 z m 40.8125,0 c -4.72359,0 -8.53125,3.81161 -8.53125,8.53125 0,4.72358 3.80766,8.5625 8.53125,8.5625 4.71965,0 8.5625,-3.83892 8.5625,-8.5625 0,-4.71964 -3.84285,-8.53125 -8.5625,-8.53125 z m -61.21875,11.46875 c -4.71965,0 -8.53125,3.80766 -8.53125,8.53125 0,4.72358 3.8116,8.5625 8.53125,8.5625 4.72359,0 8.5625,-3.83892 8.5625,-8.5625 0,-4.72359 -3.83891,-8.53125 -8.5625,-8.53125 z m 40.8125,0 c -4.71965,0 -8.53125,3.80766 -8.53125,8.53125 0,4.72358 3.8116,8.5625 8.53125,8.5625 4.72359,0 8.5625,-3.83892 8.5625,-8.5625 0,-4.72359 -3.83891,-8.53125 -8.5625,-8.53125 z m 40.8125,0 c -4.71965,0 -8.53125,3.80766 -8.53125,8.53125 0,4.72358 3.8116,8.5625 8.53125,8.5625 4.71964,0 8.5625,-3.83892 8.5625,-8.5625 0,-4.72359 -3.84286,-8.53125 -8.5625,-8.53125 z m -102.03125,11.46875 c -4.71965,0 -8.53125,3.83891 -8.53125,8.5625 0,4.71963 3.8116,8.53125 8.53125,8.53125 4.72359,0 8.5625,-3.81162 8.5625,-8.53125 0,-4.72359 -3.83891,-8.5625 -8.5625,-8.5625 z m 40.8125,0 c -4.71965,0 -8.53125,3.83891 -8.53125,8.5625 0,4.71963 3.8116,8.53125 8.53125,8.53125 4.72359,0 8.5625,-3.81162 8.5625,-8.53125 0,-4.72359 -3.83891,-8.5625 -8.5625,-8.5625 z m 40.8125,0 c -4.72359,0 -8.53125,3.83891 -8.53125,8.5625 0,4.71963 3.80766,8.53125 8.53125,8.53125 4.71965,0 8.5625,-3.81162 8.5625,-8.53125 0,-4.72359 -3.84285,-8.5625 -8.5625,-8.5625 z m 40.8125,0 c -4.71965,0 -8.53125,3.83891 -8.53125,8.5625 0,4.71963 3.8116,8.53125 8.53125,8.53125 4.72359,0 8.5625,-3.81162 8.5625,-8.53125 0,-4.72359 -3.83891,-8.5625 -8.5625,-8.5625 z M 400.98661,412.2104 c -4.71965,0 -8.53125,3.84286 -8.53125,8.5625 0,4.72358 3.8116,8.53125 8.53125,8.53125 4.72359,0 8.5625,-3.80767 8.5625,-8.53125 0,-4.71964 -3.83891,-8.5625 -8.5625,-8.5625 z m 40.8125,0 c -4.71965,0 -8.53125,3.84286 -8.53125,8.5625 0,4.72358 3.8116,8.53125 8.53125,8.53125 4.72359,0 8.5625,-3.80767 8.5625,-8.53125 0,-4.71964 -3.83891,-8.5625 -8.5625,-8.5625 z m 40.8125,0 c -4.71965,0 -8.53125,3.84286 -8.53125,8.5625 0,4.72358 3.8116,8.53125 8.53125,8.53125 4.72359,0 8.5625,-3.80767 8.5625,-8.53125 0,-4.71964 -3.83891,-8.5625 -8.5625,-8.5625 z m 40.8125,0 c -4.71965,0 -8.53125,3.84286 -8.53125,8.5625 0,4.72358 3.8116,8.53125 8.53125,8.53125 4.71964,0 8.5625,-3.80767 8.5625,-8.53125 0,-4.71964 -3.84286,-8.5625 -8.5625,-8.5625 z m 40.8125,0 c -4.71965,0 -8.53125,3.84286 -8.53125,8.5625 0,4.72358 3.8116,8.53125 8.53125,8.53125 4.72359,0 8.5625,-3.80767 8.5625,-8.53125 0,-4.71964 -3.83891,-8.5625 -8.5625,-8.5625 z m -142.84375,11.46875 c -4.71965,0 -8.53125,3.83891 -8.53125,8.5625 0,4.72358 3.8116,8.53125 8.53125,8.53125 4.72359,0 8.5625,-3.80767 8.5625,-8.53125 0,-4.72359 -3.83891,-8.5625 -8.5625,-8.5625 z m 40.8125,0 c -4.71965,0 -8.53125,3.83891 -8.53125,8.5625 0,4.72358 3.8116,8.53125 8.53125,8.53125 4.72359,0 8.5625,-3.80767 8.5625,-8.53125 0,-4.72359 -3.83891,-8.5625 -8.5625,-8.5625 z m 40.8125,0 c -4.72359,0 -8.53125,3.83891 -8.53125,8.5625 0,4.72358 3.80766,8.53125 8.53125,8.53125 4.71965,0 8.5625,-3.80767 8.5625,-8.53125 0,-4.72359 -3.84285,-8.5625 -8.5625,-8.5625 z m 40.8125,0 c -4.71965,0 -8.53125,3.83891 -8.53125,8.5625 0,4.72358 3.8116,8.53125 8.53125,8.53125 4.72359,0 8.5625,-3.80767 8.5625,-8.53125 0,-4.72359 -3.83891,-8.5625 -8.5625,-8.5625 z M 400.98661,435.1479 c -4.71965,0 -8.53125,3.84286 -8.53125,8.5625 0,4.72358 3.8116,8.53125 8.53125,8.53125 4.72359,0 8.5625,-3.80767 8.5625,-8.53125 0,-4.71964 -3.83891,-8.5625 -8.5625,-8.5625 z m 40.8125,0 c -4.71965,0 -8.53125,3.83891 -8.53125,8.5625 0,4.72358 3.8116,8.53125 8.53125,8.53125 4.72359,0 8.5625,-3.80767 8.5625,-8.53125 0,-4.72359 -3.83891,-8.5625 -8.5625,-8.5625 z m 40.8125,0 c -4.71965,0 -8.53125,3.83891 -8.53125,8.5625 0,4.72358 3.8116,8.53125 8.53125,8.53125 4.72359,0 8.5625,-3.80767 8.5625,-8.53125 0,-4.72359 -3.83891,-8.5625 -8.5625,-8.5625 z m 40.8125,0 c -4.71965,0 -8.53125,3.83891 -8.53125,8.5625 0,4.72358 3.8116,8.53125 8.53125,8.53125 4.71964,0 8.5625,-3.80767 8.5625,-8.53125 0,-4.72359 -3.84286,-8.5625 -8.5625,-8.5625 z m 40.8125,0 c -4.71965,0 -8.53125,3.84286 -8.53125,8.5625 0,4.72358 3.8116,8.53125 8.53125,8.53125 4.72359,0 8.5625,-3.80767 8.5625,-8.53125 0,-4.71964 -3.83891,-8.5625 -8.5625,-8.5625 z m -142.84375,11.46875 c -4.71965,0 -8.53125,3.83891 -8.53125,8.5625 0,4.71964 3.8116,8.53125 8.53125,8.53125 4.72359,0 8.5625,-3.81161 8.5625,-8.53125 0,-4.72359 -3.83891,-8.5625 -8.5625,-8.5625 z m 40.8125,0 c -4.71965,0 -8.53125,3.83891 -8.53125,8.5625 0,4.71964 3.8116,8.53125 8.53125,8.53125 4.72359,0 8.5625,-3.81161 8.5625,-8.53125 0,-4.72359 -3.83891,-8.5625 -8.5625,-8.5625 z m 40.8125,0 c -4.72359,0 -8.53125,3.83891 -8.53125,8.5625 0,4.71964 3.80766,8.53125 8.53125,8.53125 4.71965,0 8.5625,-3.81161 8.5625,-8.53125 0,-4.72359 -3.84285,-8.5625 -8.5625,-8.5625 z m 40.8125,0 c -4.71965,0 -8.53125,3.83891 -8.53125,8.5625 0,4.71964 3.8116,8.53125 8.53125,8.53125 4.72359,0 8.5625,-3.81161 8.5625,-8.53125 0,-4.72359 -3.83891,-8.5625 -8.5625,-8.5625 z M 400.98661,458.0854 c -4.71965,0 -8.53125,3.83891 -8.53125,8.5625 0,4.72359 3.8116,8.5625 8.53125,8.5625 4.72359,0 8.5625,-3.83891 8.5625,-8.5625 0,-4.72359 -3.83891,-8.5625 -8.5625,-8.5625 z m 40.8125,0 c -4.71965,0 -8.53125,3.83891 -8.53125,8.5625 0,4.72359 3.8116,8.5625 8.53125,8.5625 4.72359,0 8.5625,-3.83891 8.5625,-8.5625 0,-4.72359 -3.83891,-8.5625 -8.5625,-8.5625 z m 40.8125,0 c -4.71965,0 -8.53125,3.83891 -8.53125,8.5625 0,4.72359 3.8116,8.5625 8.53125,8.5625 4.72359,0 8.5625,-3.83891 8.5625,-8.5625 0,-4.72359 -3.83891,-8.5625 -8.5625,-8.5625 z m 40.8125,0 c -4.71965,0 -8.53125,3.83891 -8.53125,8.5625 0,4.72359 3.8116,8.5625 8.53125,8.5625 4.71964,0 8.5625,-3.83891 8.5625,-8.5625 0,-4.72359 -3.84286,-8.5625 -8.5625,-8.5625 z m 40.8125,0 c -4.71965,0 -8.53125,3.83891 -8.53125,8.5625 0,4.72359 3.8116,8.5625 8.53125,8.5625 4.72359,0 8.5625,-3.83891 8.5625,-8.5625 0,-4.72359 -3.83891,-8.5625 -8.5625,-8.5625 z m -142.84375,11.46875 c -4.71965,0 -8.53125,3.83891 -8.53125,8.5625 0,4.72359 3.8116,8.5625 8.53125,8.5625 4.72359,0 8.5625,-3.83891 8.5625,-8.5625 0,-4.72359 -3.83891,-8.5625 -8.5625,-8.5625 z m 40.8125,0 c -4.71965,0 -8.53125,3.83891 -8.53125,8.5625 0,4.72359 3.8116,8.5625 8.53125,8.5625 4.72359,0 8.5625,-3.83891 8.5625,-8.5625 0,-4.72359 -3.83891,-8.5625 -8.5625,-8.5625 z m 40.8125,0 c -4.72359,0 -8.53125,3.83891 -8.53125,8.5625 0,4.72359 3.80766,8.5625 8.53125,8.5625 4.71965,0 8.5625,-3.83891 8.5625,-8.5625 0,-4.72359 -3.84285,-8.5625 -8.5625,-8.5625 z m 40.8125,0 c -4.71965,0 -8.53125,3.83891 -8.53125,8.5625 0,4.72359 3.8116,8.5625 8.53125,8.5625 4.72359,0 8.5625,-3.83891 8.5625,-8.5625 0,-4.72359 -3.83891,-8.5625 -8.5625,-8.5625 z m -142.84375,11.5 c -4.71965,0 -8.53125,3.80766 -8.53125,8.53125 0,4.71964 3.8116,8.5625 8.53125,8.5625 4.72359,0 8.5625,-3.84286 8.5625,-8.5625 0,-4.72359 -3.83891,-8.53125 -8.5625,-8.53125 z m 81.625,0 c -4.71965,0 -8.53125,3.80766 -8.53125,8.53125 0,4.71964 3.8116,8.5625 8.53125,8.5625 4.72359,0 8.5625,-3.84286 8.5625,-8.5625 0,-4.72359 -3.83891,-8.53125 -8.5625,-8.53125 z m 40.8125,0 c -4.71965,0 -8.53125,3.80766 -8.53125,8.53125 0,4.71964 3.8116,8.5625 8.53125,8.5625 4.71964,0 8.5625,-3.84286 8.5625,-8.5625 0,-4.72359 -3.84286,-8.53125 -8.5625,-8.53125 z m 40.8125,0 c -4.71965,0 -8.53125,3.80766 -8.53125,8.53125 0,4.71964 3.8116,8.5625 8.53125,8.5625 4.72359,0 8.5625,-3.84286 8.5625,-8.5625 0,-4.72359 -3.83891,-8.53125 -8.5625,-8.53125 z M 421.39286,492.5229 c -4.71965,0 -8.53125,3.81161 -8.53125,8.53125 0,4.71964 3.8116,8.5625 8.53125,8.5625 4.72359,0 8.5625,-3.84286 8.5625,-8.5625 0,-4.71964 -3.83891,-8.53125 -8.5625,-8.53125 z m 40.8125,0 c -4.71965,0 -8.53125,3.81161 -8.53125,8.53125 0,4.71964 3.8116,8.5625 8.53125,8.5625 4.72359,0 8.5625,-3.84286 8.5625,-8.5625 0,-4.71964 -3.83891,-8.53125 -8.5625,-8.53125 z m 40.8125,0 c -4.72359,0 -8.53125,3.81161 -8.53125,8.53125 0,4.71964 3.80766,8.5625 8.53125,8.5625 4.71965,0 8.5625,-3.84286 8.5625,-8.5625 0,-4.71964 -3.84285,-8.53125 -8.5625,-8.53125 z m 40.8125,0 c -4.71965,0 -8.53125,3.81161 -8.53125,8.53125 0,4.71964 3.8116,8.5625 8.53125,8.5625 4.72359,0 8.5625,-3.84286 8.5625,-8.5625 0,-4.71964 -3.83891,-8.53125 -8.5625,-8.53125 z m -142.84375,11.46875 c -4.71965,0 -8.53125,3.81161 -8.53125,8.53125 0,4.72359 3.8116,8.5625 8.53125,8.5625 4.72359,0 8.5625,-3.83891 8.5625,-8.5625 0,-4.71964 -3.83891,-8.53125 -8.5625,-8.53125 z m 40.8125,0 c -4.71965,0 -8.53125,3.81161 -8.53125,8.53125 0,4.72359 3.8116,8.5625 8.53125,8.5625 4.72359,0 8.5625,-3.83891 8.5625,-8.5625 0,-4.71964 -3.83891,-8.53125 -8.5625,-8.53125 z m 40.8125,0 c -4.71965,0 -8.53125,3.81161 -8.53125,8.53125 0,4.72359 3.8116,8.5625 8.53125,8.5625 4.72359,0 8.5625,-3.83891 8.5625,-8.5625 0,-4.71964 -3.83891,-8.53125 -8.5625,-8.53125 z m 40.8125,0 c -4.71965,0 -8.53125,3.81161 -8.53125,8.53125 0,4.72359 3.8116,8.5625 8.53125,8.5625 4.71964,0 8.5625,-3.83891 8.5625,-8.5625 0,-4.71964 -3.84286,-8.53125 -8.5625,-8.53125 z m 40.8125,0 c -4.71965,0 -8.53125,3.81161 -8.53125,8.53125 0,4.72359 3.8116,8.5625 8.53125,8.5625 4.72359,0 8.5625,-3.83891 8.5625,-8.5625 0,-4.71964 -3.83891,-8.53125 -8.5625,-8.53125 z M 421.39286,515.4604 c -4.71965,0 -8.53125,3.81161 -8.53125,8.53125 0,4.72359 3.8116,8.5625 8.53125,8.5625 4.72359,0 8.5625,-3.83891 8.5625,-8.5625 0,-4.71964 -3.83891,-8.53125 -8.5625,-8.53125 z m 40.8125,0 c -4.71965,0 -8.53125,3.81161 -8.53125,8.53125 0,4.72359 3.8116,8.5625 8.53125,8.5625 4.72359,0 8.5625,-3.83891 8.5625,-8.5625 0,-4.71964 -3.83891,-8.53125 -8.5625,-8.53125 z m 40.8125,0 c -4.72359,0 -8.53125,3.81161 -8.53125,8.53125 0,4.72359 3.80766,8.5625 8.53125,8.5625 4.71965,0 8.5625,-3.83891 8.5625,-8.5625 0,-4.71964 -3.84285,-8.53125 -8.5625,-8.53125 z m 40.8125,0 c -4.71965,0 -8.53125,3.81161 -8.53125,8.53125 0,4.72359 3.8116,8.5625 8.53125,8.5625 4.72359,0 8.5625,-3.83891 8.5625,-8.5625 0,-4.71964 -3.83891,-8.53125 -8.5625,-8.53125 z m -102.03125,11.46875 c -4.71965,0 -8.53125,3.84286 -8.53125,8.5625 0,4.72359 3.8116,8.53125 8.53125,8.53125 4.72359,0 8.5625,-3.80766 8.5625,-8.53125 0,-4.71964 -3.83891,-8.5625 -8.5625,-8.5625 z m 40.8125,0 c -4.71965,0 -8.53125,3.84286 -8.53125,8.5625 0,4.72359 3.8116,8.53125 8.53125,8.53125 4.72359,0 8.5625,-3.80766 8.5625,-8.53125 0,-4.71964 -3.83891,-8.5625 -8.5625,-8.5625 z m 40.8125,0 c -4.71965,0 -8.53125,3.84286 -8.53125,8.5625 0,4.72359 3.8116,8.53125 8.53125,8.53125 4.71964,0 8.5625,-3.80766 8.5625,-8.53125 0,-4.71964 -3.84286,-8.5625 -8.5625,-8.5625 z m -61.21875,11.46875 c -4.71965,0 -8.53125,3.83891 -8.53125,8.5625 0,4.71964 3.8116,8.53125 8.53125,8.53125 4.72359,0 8.5625,-3.81161 8.5625,-8.53125 0,-4.72359 -3.83891,-8.5625 -8.5625,-8.5625 z m 40.8125,0 c -4.72359,0 -8.53125,3.83891 -8.53125,8.5625 0,4.71964 3.80766,8.53125 8.53125,8.53125 4.71965,0 8.5625,-3.81161 8.5625,-8.53125 0,-4.72359 -3.84285,-8.5625 -8.5625,-8.5625 z m -20.40625,11.46875 c -1.47489,0 -2.8514,0.37311 -4.0625,1.03125 -0.48444,0.26326 -0.95283,0.58898 -1.375,0.9375 -0.21108,0.17426 -0.40039,0.33783 -0.59375,0.53125 -0.19336,0.19342 -0.38829,0.41384 -0.5625,0.625 -0.34842,0.42232 -0.64304,0.85908 -0.90625,1.34375 -0.1316,0.24234 -0.26685,0.49422 -0.375,0.75 -0.10815,0.25578 -0.19799,0.51346 -0.28125,0.78125 -0.0833,0.26779 -0.16181,0.56539 -0.21875,0.84375 -0.0569,0.27836 -0.0958,0.55624 -0.125,0.84375 -0.0292,0.28751 -0.0312,0.57978 -0.0312,0.875 0,0.29498 0.002,0.58771 0.0312,0.875 0.0876,0.86188 0.30055,1.67058 0.625,2.4375 0.2163,0.51128 0.474,1.01401 0.78125,1.46875 0.30725,0.45474 0.67577,0.86327 1.0625,1.25 0.19336,0.19336 0.38267,0.38829 0.59375,0.5625 0.21108,0.17421 0.42888,0.34638 0.65625,0.5 1.36421,0.92174 3.01138,1.4375 4.78125,1.4375 4.72359,0 8.5625,-3.81161 8.5625,-8.53125 0,-4.72359 -3.83891,-8.5625 -8.5625,-8.5625 z"
       id="path2524"
       style="fill:#5db446;fill-opacity:1;fill-rule:nonzero;stroke:none" />
    <path
       d="m 433.25588,489.59166 c 0,-4.72359 3.82781,-8.55139 8.54746,-8.55139 4.72358,0 8.54743,3.8278 8.54743,8.55139 0,4.71964 -3.82385,8.54745 -8.54743,8.54745 -4.71965,0 -8.54746,-3.82781 -8.54746,-8.54745"
       id="path2708"
       style="fill:#e3182c;fill-opacity:1;fill-rule:nonzero;stroke:none" />
    <path
       d="m 101.48661,432.05415 v 68.96875 h 49.4375 v -8.34375 h -41 v -22.9375 h 37.125 v -8.65625 h -37.125 v -20.6875 h 40 v -8.34375 z m 64.75,0 v 68.96875 h 8.46875 v -40.78125 c 0,-2.03624 -0.1875,-10.19303 -0.1875,-16.59375 h 0.1875 l 18.9375,57.375 h 9.28125 l 18.9375,-57.46875 h 0.1875 c 0,6.49937 -0.1875,57.46875 -0.1875,57.46875 h 8.46875 v -68.96875 h -12.25 c 0,0 -2.78626,6.9838 -3.0625,7.8125 -9.90492,29.81346 -16.53125,49.71875 -16.53125,49.71875 h -0.1875 c 0,0 -6.66876,-19.90529 -16.625,-49.71875 -0.28018,-0.83659 -3.0625,-7.8125 -3.0625,-7.8125 z m 80.59375,0 v 68.96875 h 29.3125 c 15.41776,0 22.65625,-9.06682 22.65625,-20.21875 0,-11.92539 -7.06715,-15.12589 -11.625,-16.96875 7.65955,-3.58709 8.34375,-10.0086 8.34375,-14.5625 0,-9.50243 -5.72789,-17.21875 -18.71875,-17.21875 z m 65.6875,0 v 68.96875 h 45.34375 v -8.6875 h -36.28125 v -60.28125 z m -57.25,7.71875 h 17.375 c 10.47319,0 14.78125,3.69207 14.78125,10.1875 0,8.53166 -5.85796,10.90625 -14.875,10.90625 h -17.28125 z m 0,29.09375 h 18.84375 c 7.65955,0 16.59375,1.9243 16.59375,11.71875 0,7.7582 -5.26805,12.71875 -15.0625,12.71875 h -20.375 z"
       id="path2736"
       style="fill:#231f20;fill-opacity:1;fill-rule:nonzero;stroke:none" />
  </g>
</svg>
